<svg width="412" height="471" viewBox="0 0 412 471" fill="none" xmlns="http://www.w3.org/2000/svg">
<path fill-rule="evenodd" clip-rule="evenodd" d="M320.562 178.741C324.726 173.333 327.481 166.758 326.836 159.472C324.979 138.48 297.401 143.713 292.25 154.442C287.099 165.171 288.331 192.072 295.331 193.815C298.123 194.51 303.994 192.528 309.926 188.561L306.77 216.893L329.07 216.403L320.562 178.741Z" fill="#B28B67"/>
<path fill-rule="evenodd" clip-rule="evenodd" d="M282.048 139.949C282.472 138.223 283.682 136.726 285.346 136.254C285.75 136.139 286.168 136.087 286.586 136.096C286.736 136.099 286.779 136.143 286.847 136.031C286.897 135.948 286.894 135.747 286.913 135.65C286.973 135.349 287.05 135.05 287.146 134.759C287.474 133.767 288.044 132.883 288.737 132.133C290.034 130.73 291.807 129.743 293.666 129.531C294.683 129.415 295.7 129.568 296.671 129.897C297.174 130.068 297.663 130.283 298.14 130.523C298.284 130.595 298.752 130.953 298.894 130.926C299.051 130.896 299.358 130.476 299.483 130.369C301.036 129.052 302.977 128.505 304.947 128.477C307.169 128.446 309.312 128.516 311.197 129.908C311.596 130.203 311.977 130.527 312.341 130.868C312.532 131.048 312.718 131.235 312.895 131.43C313.002 131.548 313.107 131.669 313.207 131.792C313.378 132.003 313.353 132.073 313.582 131.919C314.462 131.327 315.49 131.036 316.534 131.148C317.154 131.215 317.76 131.398 318.337 131.644C318.533 131.727 318.991 132.068 319.198 132.067C319.404 132.066 319.841 131.731 320.051 131.644C321.185 131.172 322.415 131.035 323.622 131.215C324.867 131.401 326.097 131.897 327.164 132.597C327.677 132.934 328.127 133.309 328.492 133.819C328.65 134.039 328.794 134.272 328.971 134.475C329.076 134.594 329.279 134.714 329.337 134.866C329.303 134.775 330.679 134.178 330.809 134.139C331.504 133.931 332.215 133.954 332.904 134.177C334.2 134.597 335.328 135.576 336.259 136.584C336.738 137.102 337.159 137.677 337.52 138.292C337.692 138.586 337.851 138.89 337.997 139.2C338.068 139.35 338.117 139.539 338.208 139.673C338.327 139.847 338.404 139.849 338.612 139.921C339.673 140.287 340.647 140.926 341.397 141.802C342.156 142.687 342.66 143.788 342.887 144.953C342.9 145.021 342.913 145.307 342.952 145.343C343.006 145.394 343.217 145.366 343.297 145.374C343.575 145.403 343.852 145.448 344.125 145.51C344.628 145.624 345.119 145.798 345.586 146.029C347.403 146.929 348.727 148.663 349.4 150.633C350.105 152.699 350.146 155.084 349.402 157.143C349.282 157.476 349.137 157.799 348.966 158.106C348.861 158.295 348.825 158.296 348.901 158.489C348.985 158.705 349.134 158.912 349.232 159.122C349.554 159.808 349.785 160.537 349.937 161.284C350.186 162.508 350.324 163.798 350.132 165.042C350.043 165.62 349.878 166.186 349.619 166.704C349.487 166.969 349.331 167.22 349.154 167.453C349.062 167.574 348.964 167.69 348.861 167.802C348.803 167.865 348.725 167.921 348.676 167.992C348.555 168.164 348.525 168.025 348.595 168.273C348.693 168.618 348.904 168.957 349.036 169.293C349.173 169.639 349.297 169.99 349.411 170.344C349.642 171.063 349.84 171.795 349.971 172.541C350.221 173.974 350.216 175.506 349.602 176.839C349.339 177.41 348.956 177.913 348.486 178.309C348.256 178.503 348.006 178.67 347.743 178.81C347.607 178.881 347.434 178.915 347.374 179.056C347.31 179.208 347.417 179.504 347.443 179.671C347.673 181.129 347.806 182.662 347.426 184.104C347.077 185.432 346.269 186.615 345.203 187.41C343.137 188.953 340.305 188.931 338.072 187.781C337.491 187.482 336.944 187.106 336.454 186.659C335.27 188.425 332.754 188.425 330.957 187.969C328.719 187.4 326.897 185.804 325.821 183.677C324.455 185.518 321.49 184.996 320.471 183.053C320.222 182.578 320.068 182.051 319.987 181.516C319.944 181.235 319.961 180.95 319.927 180.671C319.884 180.316 319.652 179.974 319.515 179.632C319.248 178.967 319.076 178.277 319.054 177.554C319.042 177.176 319.079 176.807 319.105 176.431C319.128 176.093 319.032 175.781 318.975 175.449C319.548 175.536 320.239 175.358 320.773 175.171C321.297 174.988 321.781 174.525 322.145 174.103C322.988 173.126 323.489 171.857 323.823 170.598C324.555 167.834 324.158 164.547 321.512 163.097C320.28 162.422 316.634 162.504 315.192 162.883C313.676 163.282 312.027 166.875 311.949 167.211C311.901 167.419 311.933 167.674 311.756 167.816C311.368 168.128 310.705 167.616 310.408 167.363C309.896 166.926 309.524 166.338 309.2 165.741C308.495 164.44 307.918 163.04 307.501 161.608C307.18 160.504 306.965 159.362 306.552 158.289C306.142 157.22 305.512 156.271 304.552 155.681C303.507 155.04 302.318 154.716 301.178 154.324C300.048 153.935 298.935 153.454 298.047 152.596C297.852 152.407 297.662 152.207 297.503 151.983C297.378 151.806 297.25 151.466 297.063 151.356C296.771 151.186 296.362 151.655 296.117 151.827C294.908 152.678 293.91 153.849 293.112 155.123C292.318 156.389 291.671 157.605 291.154 159.011C290.771 160.054 290.546 161.383 289.851 162.246C289.54 162.632 287.176 162.913 286.401 162.599C285.626 162.286 284.747 161.447 284.477 160.915C284.201 160.371 284.125 159.768 284.225 159.163C284.283 158.808 284.411 158.474 284.478 158.124C284.534 157.83 284.584 157.553 284.713 157.282C284.957 156.769 285.384 156.395 285.907 156.23C285.348 155.709 284.881 155.082 284.552 154.376C284.21 153.642 283.914 152.748 283.817 151.936C283.739 151.278 283.822 150.591 284.152 150.016C284.497 149.413 285.124 149.011 285.666 148.628C284.811 147.952 284.074 147.123 283.462 146.201C282.273 144.407 281.512 142.13 282.048 139.949Z" fill="#191847"/>
<path fill-rule="evenodd" clip-rule="evenodd" d="M394.021 337.831L287.169 340.179C278.959 340.36 272.458 347.543 272.649 356.224L274.635 446.602C274.825 455.283 281.636 462.174 289.846 461.993L396.698 459.645C404.908 459.465 411.41 452.281 411.219 443.601L409.233 353.223C409.042 344.542 402.231 337.651 394.021 337.831ZM379.759 365.664C381.812 365.619 383.514 367.342 383.562 369.512L384.857 428.454C384.905 430.625 383.28 432.42 381.227 432.466L304.108 434.16C302.056 434.205 300.353 432.483 300.305 430.312L299.01 371.37C298.962 369.2 300.588 367.404 302.64 367.359L379.759 365.664Z" fill="black"/>
<path fill-rule="evenodd" clip-rule="evenodd" d="M208.466 460.499C219.758 432.379 227.835 407.932 231.009 395.057C236.445 373.013 240.523 353.631 241.502 346.405C243.838 329.173 220.232 328.691 217.303 337.294C212.868 350.315 205.564 392.936 197.076 457.258L208.466 460.499ZM344.634 370.037C333.611 365.712 295.047 352.267 276.509 348.632C271.183 347.587 266.021 346.621 261.168 345.752C246.746 343.169 239.908 370.721 253.784 372.521C288.34 377.005 337.284 381.344 341.476 381.859C347.351 382.582 351.562 372.755 344.634 370.037Z" fill="#B28B67"/>
<path fill-rule="evenodd" clip-rule="evenodd" d="M252.19 338.409L310.573 305.312L310.421 298.389L303.394 298.543C246.574 315.199 217.583 325.71 216.421 330.076C216.408 330.123 216.397 330.17 216.386 330.217C216.359 330.257 216.331 330.298 216.304 330.339C205.339 347.059 200.322 427.622 198.227 433.692L220.009 436.639C227.597 403.902 253.664 380.641 252.101 341.667C252.267 340.519 252.291 339.433 252.19 338.409Z" fill="black"/>
<path fill-rule="evenodd" clip-rule="evenodd" d="M306.778 356.104C312.158 354.841 317.114 353.71 321.356 352.827C348.759 347.119 356.441 331.371 350.95 297.498L300.254 298.612C292.028 301.31 249.41 321.337 227.303 331.978C212.672 339.02 217.863 363.133 226.371 369.251C226.425 369.637 226.581 369.896 226.852 370.007C272.306 388.747 307.695 377.613 319.665 380.659L324.765 362.183L306.778 356.104Z" fill="black"/>
<path fill-rule="evenodd" clip-rule="evenodd" d="M340.836 367.202C343.792 367.435 345.896 367.858 347.149 368.469C348.672 369.212 350.777 370.565 353.466 372.527C352.655 374.393 345.362 391.161 331.588 422.832C326.927 422.142 325.046 420.309 325.944 417.333C326.843 414.357 327.566 411.873 328.113 409.882L328.412 381.683C328.417 381.14 328.838 380.706 329.351 380.714C329.36 380.714 329.369 380.714 329.378 380.714L333.484 380.897C335.77 378.852 337.267 377.014 337.976 375.384C338.552 374.06 338.841 371.983 338.843 369.155L338.843 369.155C338.844 368.07 339.677 367.193 340.703 367.196C340.747 367.196 340.792 367.198 340.836 367.202Z" fill="black"/>
<path fill-rule="evenodd" clip-rule="evenodd" d="M213.77 455.215C214.874 458.126 215.442 460.309 215.474 461.766C215.513 463.537 215.29 466.129 214.807 469.539C212.863 469.582 195.395 469.966 162.402 470.691C160.935 465.961 161.665 463.374 164.59 462.93C167.516 462.486 169.946 462.09 171.88 461.741L195.985 449.725C196.449 449.494 197.003 449.704 197.223 450.195C197.227 450.204 197.231 450.212 197.234 450.221L198.888 454.202C201.634 455.482 203.856 456.103 205.554 456.066C206.934 456.036 208.826 455.405 211.231 454.173L211.231 454.173C212.154 453.7 213.267 454.109 213.716 455.086C213.736 455.128 213.753 455.171 213.77 455.215Z" fill="black"/>
<path fill-rule="evenodd" clip-rule="evenodd" d="M256.146 283.977L230.304 306.332C222.707 309.27 216.499 312.468 211.681 315.923C210.606 317.072 209.455 319.255 214.61 318.176C219.764 317.098 225.241 316.16 226.245 317.566C227.25 318.972 224.431 321.222 226.27 323.051C227.496 324.27 231.44 320.22 238.101 310.9L265.17 296.613L256.146 283.977ZM373.041 284.481L353.626 284.972C366.336 317.532 373.191 334.806 374.191 336.793C376.44 341.265 372.041 348.247 370.177 351.988C376.567 354.254 375.696 345.362 383.759 348.341C391.118 351.059 396.783 356.154 405.116 351.557C406.141 350.992 407.231 348.925 404.452 347.39C397.529 343.564 387.524 336.823 386.143 334.562C384.259 331.478 379.891 314.785 373.041 284.481Z" fill="#B28B67"/>
<path fill-rule="evenodd" clip-rule="evenodd" d="M315.985 200.309L307.919 199.028C294.889 235.867 271.468 269.594 237.656 300.209L264.437 333.093C297.967 289.822 318.247 245.492 315.985 200.309Z" fill="#495153"/>
<path fill-rule="evenodd" clip-rule="evenodd" d="M353.355 306.291L281.811 307.863C297.45 264.889 304.942 228.51 304.288 198.726L325.794 194.852C343.389 223.321 348.959 258.724 353.355 306.291Z" fill="#DDE3E9"/>
<path fill-rule="evenodd" clip-rule="evenodd" d="M326.252 194.859C326.249 194.853 326.246 194.848 326.243 194.843L324.834 194.874C323.15 194.972 320.585 195.139 317.139 195.375L312.27 211.246C312.141 230.468 309.77 269.254 305.159 327.603L352.057 326.572C352.023 330.596 351.909 334.659 351.717 338.761L386.588 337.995C380.004 275.89 359.898 228.172 326.268 194.842L326.252 194.859Z" fill="#495153"/>
<path fill-rule="evenodd" clip-rule="evenodd" d="M347.829 275.191C347.045 300.285 344.083 317.637 338.942 327.248L352.054 326.959C352.231 308.913 350.823 291.657 347.829 275.191L347.829 275.191Z" fill="black" fill-opacity="0.1"/>
<path fill-rule="evenodd" clip-rule="evenodd" d="M340.958 296.735L317.582 285.877L317.832 297.243L340.958 296.735Z" fill="white" fill-opacity="0.2"/>
<path d="M259.37 0H0V257.173H259.37V0Z" fill="#1B5EAC"/>
<path d="M259.37 0H0V19.5757H259.37V0Z" fill="white" fill-opacity="0.2"/>
<path d="M13.6867 13.1222C15.3796 13.1222 16.752 11.7417 16.752 10.0388C16.752 8.33594 15.3796 6.95547 13.6867 6.95547C11.9938 6.95547 10.6215 8.33594 10.6215 10.0388C10.6215 11.7417 11.9938 13.1222 13.6867 13.1222Z" fill="#DDE3E9"/>
<path d="M23.5596 13.1222C25.2525 13.1222 26.6249 11.7417 26.6249 10.0388C26.6249 8.33594 25.2525 6.95547 23.5596 6.95547C21.8667 6.95547 20.4944 8.33594 20.4944 10.0388C20.4944 11.7417 21.8667 13.1222 23.5596 13.1222Z" fill="#DDE3E9"/>
<path d="M33.4327 13.1222C35.1256 13.1222 36.4979 11.7417 36.4979 10.0388C36.4979 8.33594 35.1256 6.95547 33.4327 6.95547C31.7398 6.95547 30.3674 8.33594 30.3674 10.0388C30.3674 11.7417 31.7398 13.1222 33.4327 13.1222Z" fill="#DDE3E9"/>
<path d="M116.373 33.8452H12.6887V90.3495H116.373V33.8452Z" fill="#DDE3E9"/>
<path d="M116.373 103.758H12.6887V160.263H116.373V103.758Z" fill="#DDE3E9"/>
<path d="M245.292 103.758H141.608V225.623H245.292V103.758Z" fill="#DDE3E9"/>
<path d="M276.728 37.9324H134.372V43.3821H276.728V37.9324Z" fill="white" fill-opacity="0.2"/>
<path d="M276.728 53.3134H134.372V58.763H276.728V53.3134Z" fill="white" fill-opacity="0.2"/>
<path d="M276.728 68.6943H134.372V74.1439H276.728V68.6943Z" fill="white" fill-opacity="0.2"/>
<path d="M276.728 84.0752H134.372V89.5249H276.728V84.0752Z" fill="white" fill-opacity="0.2"/>
<path d="M68.2766 36V59.9272L89.2314 67.8302C90.3699 65.0964 91 62.0943 91 58.9435C91 46.2726 80.8249 36 68.2766 36Z" fill="#C51350"/>
<path d="M63.7244 40.1118C51.1745 40.1118 41 50.3839 41 63.0554C41 75.7279 51.1745 86 63.7244 86C73.1538 86 81.2405 80.2008 84.6797 71.942L63.7244 64.039V40.1118Z" fill="#068136"/>
<path d="M108.68 105.238C108.68 101.247 105.26 98 101.057 98H31.9428C27.7395 98 24.3199 101.247 24.3199 105.238V108.39H108.68V105.238Z" fill="#666666"/>
<path d="M108.68 106.106H24.3199V108.39H108.68V106.106Z" fill="#4C4C4C"/>
<path d="M24.3199 108.39V167.001C24.3199 167.801 25.0023 168.449 25.8446 168.449H107.155C107.998 168.449 108.68 167.801 108.68 167.001V108.39H24.3199Z" fill="#F2F2F2"/>
<path d="M34.8203 108.39H24.3199V167.001C24.3199 167.801 25.0023 168.449 25.8446 168.449H97.6142L34.8203 108.39Z" fill="#E5E5E5"/>
<path d="M53.4888 136.892C53.222 136.892 52.9513 136.825 52.7057 136.685L44.5746 132.053C43.8526 131.642 43.6184 130.753 44.0515 130.067C44.4847 129.381 45.4215 129.159 46.1433 129.57L54.2744 134.203C54.9964 134.614 55.2306 135.503 54.7975 136.189C54.5117 136.641 54.0068 136.892 53.4888 136.892Z" fill="#FF7452"/>
<path d="M62.0277 134.189C61.6377 134.189 61.2473 134.048 60.9496 133.766C60.3542 133.2 60.3542 132.284 60.9496 131.718L69.8938 123.226C70.4894 122.661 71.4546 122.661 72.05 123.226C72.6453 123.791 72.6453 124.708 72.05 125.273L63.1057 133.766C62.8081 134.048 62.4179 134.189 62.0277 134.189Z" fill="#FF7452"/>
<path d="M79.102 121.065C78.4191 121.065 77.7974 120.626 77.624 119.968C77.4198 119.193 77.9164 118.407 78.7333 118.213L86.8645 116.282C87.6812 116.089 88.5092 116.56 88.7135 117.336C88.9177 118.111 88.4212 118.897 87.6042 119.091L79.4731 121.022C79.349 121.051 79.2246 121.065 79.102 121.065Z" fill="#FF7452"/>
<path d="M57.9624 130.522C54.6557 130.522 51.9657 133.077 51.9657 136.216C51.9657 139.356 54.6557 141.91 57.9624 141.91C61.269 141.91 63.959 139.356 63.959 136.216C63.959 133.077 61.2688 130.522 57.9624 130.522Z" fill="#FFD652"/>
<path d="M60.2999 139.69C56.9933 139.69 54.3033 137.136 54.3033 133.996C54.3033 132.996 54.5773 132.056 55.0566 131.238C53.2149 132.211 51.9656 134.077 51.9656 136.216C51.9656 139.356 54.6556 141.91 57.9622 141.91C60.2151 141.91 62.1808 140.724 63.2056 138.975C62.3441 139.43 61.3536 139.69 60.2999 139.69Z" fill="#FB9D46"/>
<path d="M75.0375 115.853C71.7309 115.853 69.0409 118.408 69.0409 121.547C69.0409 124.687 71.7309 127.241 75.0375 127.241C78.3442 127.241 81.0342 124.687 81.0342 121.547C81.0342 118.408 78.344 115.853 75.0375 115.853Z" fill="#FFD652"/>
<path d="M77.1721 125.214C73.8655 125.214 71.1754 122.66 71.1754 119.521C71.1754 118.47 71.478 117.485 72.003 116.639C70.2324 117.63 69.0411 119.458 69.0411 121.547C69.0411 124.687 71.7312 127.241 75.0378 127.241C77.2376 127.241 79.1633 126.11 80.2069 124.429C79.3159 124.927 78.2789 125.214 77.1721 125.214Z" fill="#FB9D46"/>
<path d="M92.113 111.993C88.8063 111.993 86.1163 114.547 86.1163 117.687C86.1163 120.827 88.8063 123.381 92.113 123.381C95.4196 123.381 98.1096 120.827 98.1096 117.687C98.1096 114.547 95.4194 111.993 92.113 111.993Z" fill="#FFD652"/>
<path d="M94.1458 121.451C90.8391 121.451 88.1491 118.897 88.1491 115.757C88.1491 114.681 88.4653 113.674 89.0138 112.814C87.2784 113.813 86.1163 115.624 86.1163 117.687C86.1163 120.827 88.8063 123.381 92.113 123.381C94.2862 123.381 96.1929 122.278 97.2449 120.63C96.3398 121.151 95.2789 121.451 94.1458 121.451Z" fill="#FB9D46"/>
<path d="M40.887 123.96C37.5804 123.96 34.8904 126.514 34.8904 129.654C34.8904 132.793 37.5804 135.348 40.887 135.348C44.1937 135.348 46.8837 132.793 46.8837 129.654C46.8837 126.514 44.1935 123.96 40.887 123.96Z" fill="#FFD652"/>
<path d="M40.887 123.96C37.5804 123.96 34.8904 126.514 34.8904 129.654C34.8904 132.793 37.5804 135.348 40.887 135.348C44.1937 135.348 46.8837 132.793 46.8837 129.654C46.8837 126.514 44.1935 123.96 40.887 123.96Z" fill="#FFD652"/>
<path d="M43.2247 133.128C39.9181 133.128 37.2281 130.574 37.2281 127.434C37.2281 126.434 37.5021 125.493 37.9814 124.675C36.1397 125.648 34.8904 127.515 34.8904 129.654C34.8904 132.793 37.5804 135.348 40.887 135.348C43.1399 135.348 45.1056 134.161 46.1304 132.413C45.2689 132.868 44.2784 133.128 43.2247 133.128Z" fill="#FB9D46"/>
<path d="M43.3265 140.173H37.6347C36.7927 140.173 36.1101 140.821 36.1101 141.62V154.745C36.1101 155.545 36.7925 156.193 37.6347 156.193H43.3265C44.1686 156.193 44.8511 155.545 44.8511 154.745V141.62C44.8509 140.821 44.1684 140.173 43.3265 140.173Z" fill="#5ABCBB"/>
<path d="M78.019 130.908H72.3272C71.4852 130.908 70.8026 131.556 70.8026 132.356V154.745C70.8026 155.545 71.485 156.193 72.3272 156.193H78.019C78.8611 156.193 79.5436 155.545 79.5436 154.745V132.356C79.5436 131.556 78.8611 130.908 78.019 130.908Z" fill="#5ABCBB"/>
<path d="M95.3653 126.276H89.6736C88.8315 126.276 88.1489 126.924 88.1489 127.724V154.745C88.1489 155.545 88.8313 156.193 89.6736 156.193H95.3653C96.2076 156.193 96.8899 155.545 96.8899 154.745V127.724C96.8899 126.924 96.2074 126.276 95.3653 126.276Z" fill="#5ABCBB"/>
<path d="M60.6728 144.033H54.9811C54.139 144.033 53.4564 144.681 53.4564 145.481V154.745C53.4564 155.545 54.1388 156.193 54.9811 156.193H60.6728C61.5149 156.193 62.1974 155.545 62.1974 154.745V145.481C62.1972 144.681 61.5147 144.033 60.6728 144.033Z" fill="#5ABCBB"/>
<path d="M101.26 156.193H31.7396C30.8975 156.193 30.215 155.545 30.215 154.745C30.215 153.945 30.8973 153.297 31.7396 153.297H101.26C102.103 153.297 102.785 153.945 102.785 154.745C102.785 155.545 102.102 156.193 101.26 156.193Z" fill="#4F5AA8"/>
<path d="M112.034 159.377H20.966C20.1238 159.377 19.4414 160.025 19.4414 160.825V167.001C19.4414 167.801 20.1238 168.449 20.966 168.449H112.034C112.876 168.449 113.559 167.801 113.559 167.001V160.825C113.559 160.025 112.876 159.377 112.034 159.377Z" fill="#666666"/>
<path d="M219.553 135H166.274C163.362 135 161 137.483 161 140.545V191.65C161 194.712 163.362 197.195 166.274 197.195H219.553C222.465 197.195 224.827 194.712 224.827 191.65V140.545C224.827 137.483 222.465 135 219.553 135Z" fill="#FFB000"/>
<path d="M171 170.588L180.275 160.838C180.881 160.2 181.703 159.843 182.561 159.843C183.418 159.843 184.24 160.2 184.847 160.838L192.1 168.464C192.707 169.101 193.53 169.459 194.387 169.459C195.244 169.459 196.067 169.101 196.674 168.464L208.53 156" stroke="white" stroke-width="5.16228" stroke-miterlimit="10" stroke-linecap="round"/>
<path d="M209 145H215.592C215.89 145 216.175 145.125 216.386 145.346C216.597 145.568 216.716 145.868 216.716 146.181V152.453" stroke="white" stroke-width="5.16228" stroke-miterlimit="10" stroke-linecap="round"/>
</svg>
